<svg xmlns="http://www.w3.org/2000/svg" width="40" height="38" viewBox="0 0 40 38" fill="none">
  <g clip-path="url(#clip0_2107_5945)">
    <path d="M20.0327 11.7174C23.1319 11.7174 26.2312 11.7281 29.3305 11.7106C30.1946 11.7058 30.817 12.0342 31.2809 12.7529C32.6333 14.8472 34.0083 16.928 35.3725 19.0155C35.9734 19.9358 35.9244 20.6991 35.1914 21.5137C30.6291 26.5877 26.0649 31.6598 21.4967 36.7289C20.5719 37.7548 19.423 37.7586 18.5041 36.7386C13.9359 31.6695 9.37259 26.5974 4.81027 21.5234C4.07533 20.7059 4.01857 19.9358 4.61553 19.0262C5.98951 16.9299 7.37425 14.8405 8.73844 12.7374C9.19644 12.0313 9.80905 11.7077 10.6575 11.7116C13.7832 11.7271 16.9079 11.7174 20.0336 11.7174H20.0327ZM21.5397 34.2375C21.5642 34.251 21.5877 34.2646 21.6122 34.2772C25.554 29.8958 29.4969 25.5144 33.4847 21.0817H25.6333C24.2671 25.4718 22.903 29.8541 21.5397 34.2365V34.2375ZM18.3847 34.282C18.4082 34.2694 18.4316 34.2578 18.4551 34.2452C17.088 29.8541 15.7219 25.4621 14.3606 21.0895H6.51405C10.5019 25.5222 14.4438 29.9016 18.3857 34.282H18.3847ZM15.9959 21.0895C17.3239 25.3556 18.6391 29.58 19.9544 33.8035C19.9847 33.7986 20.015 33.7938 20.0454 33.789C21.3597 29.5664 22.674 25.343 23.997 21.0895H15.9959ZM13.5092 19.5086C12.2713 17.6138 11.0744 15.784 9.8433 13.9018C8.60339 15.7907 7.39872 17.6264 6.16272 19.5086H13.5092ZM26.515 19.4931H33.8214C32.5932 17.6148 31.3964 15.7849 30.1662 13.9037C28.9361 15.7859 27.7403 17.6167 26.515 19.4931ZM28.7022 13.2944H21.4223C22.6436 15.163 23.8365 16.9871 25.0628 18.8634C26.2831 16.9958 27.479 15.165 28.7022 13.2944ZM18.5687 13.2944H11.3083C12.5306 15.163 13.7245 16.989 14.9409 18.8489C16.1681 16.9706 17.3532 15.1553 18.5687 13.2944ZM23.6222 19.5057C22.398 17.6332 21.2148 15.8246 19.9965 13.9609C18.7732 15.8324 17.5881 17.6477 16.3736 19.5057H23.6222Z" fill="#232338" stroke="#232338" />
    <path d="M20.7908 3.79257C20.7908 4.57818 20.7947 5.36378 20.7898 6.14939C20.7859 6.71704 20.4805 7.07255 20.0157 7.07158C19.5518 7.07061 19.2338 6.71414 19.2309 6.14939C19.223 4.56559 19.222 2.98178 19.2309 1.39798C19.2338 0.837106 19.5636 0.490316 20.0343 0.500971C20.4962 0.511627 20.7839 0.844855 20.7878 1.39894C20.7947 2.19714 20.7898 2.99534 20.7898 3.79451L20.7908 3.79257Z" fill="#F37124" stroke="#F37124" />
    <path d="M34.3775 6.96406C34.3061 7.08224 34.2199 7.30601 34.0643 7.46294C33.2658 8.27567 32.4545 9.07677 31.6374 9.8711C31.243 10.2537 30.786 10.2712 30.4581 9.94762C30.1313 9.62505 30.1479 9.1688 30.5335 8.78035C31.336 7.9715 32.1502 7.17233 32.9624 6.37316C33.2315 6.10871 33.5447 5.97503 33.9175 6.14746C34.216 6.28598 34.3599 6.53203 34.3775 6.9631V6.96406Z" fill="#F37124" stroke="#F37124" />
    <path d="M6.38826 5.95758C6.66814 6.12419 6.89323 6.20847 7.05078 6.36055C7.87184 7.151 8.6792 7.95502 9.48362 8.76193C9.86333 9.1436 9.89073 9.61147 9.57464 9.9292C9.24582 10.2605 8.79174 10.2469 8.39638 9.86236C7.57043 9.05932 6.75524 8.24465 5.93809 7.43192C5.67778 7.17328 5.54371 6.84199 5.73748 6.52426C5.87448 6.29953 6.15045 6.15713 6.38826 5.95855V5.95758Z" fill="#F37124" stroke="#F37124" />
    <path d="M20.0312 8.15747C20.4549 8.16619 20.7906 8.51395 20.7827 8.93533C20.7749 9.34896 20.4118 9.69768 20.0008 9.68703C19.5908 9.67637 19.2297 9.30537 19.2395 8.9053C19.2492 8.49845 19.6182 8.14972 20.0321 8.15844L20.0312 8.15747Z" fill="#F37124" stroke="#F37124" />
  </g>
  <defs>
    <clipPath id="clip0_2107_5945">
      <rect width="40" height="37" fill="white" transform="translate(0 0.5)" />
    </clipPath>
  </defs>
</svg>