<svg xmlns="http://www.w3.org/2000/svg" width="40" height="40" viewBox="0 0 40 40" fill="none">
  <g clip-path="url(#clip0_2107_5809)">
    <path d="M20.7614 5.33581C20.7614 6.79672 20.7637 8.25763 20.7614 9.71854C20.7591 10.4525 20.5049 10.7018 19.7669 10.7145C15.1867 10.7968 11.3433 14.2706 10.7968 18.8237C10.2015 23.7781 13.3346 28.1353 18.2131 29.1371C23.0764 30.1365 28.2032 26.6744 29.1142 21.7664C29.214 21.2284 29.2557 20.6789 29.2963 20.1316C29.3404 19.5275 29.5876 19.2377 30.1783 19.2365C33.1606 19.2295 36.1417 19.2295 39.124 19.2365C39.6822 19.2377 40.0117 19.5623 40.0013 20.0412C39.9909 20.5038 39.6694 20.7844 39.1252 20.7878C38.2282 20.7936 37.33 20.8018 36.433 20.7844C36.0141 20.7763 35.8388 20.9397 35.8064 21.3606C35.2876 28.0379 30.357 33.8734 23.8679 35.5036C23.2795 35.652 22.8803 35.4549 22.7805 34.9691C22.6796 34.474 22.9128 34.1506 23.5162 33.9929C25.055 33.5905 26.4974 32.9714 27.8133 32.0798C31.5104 29.5753 33.6329 26.0947 34.2293 21.6783C34.2444 21.5635 34.2479 21.4476 34.2537 21.3316C34.2792 20.8516 34.2061 20.7658 33.728 20.7635C32.932 20.7589 32.1359 20.7716 31.3399 20.7589C30.9639 20.7531 30.8072 20.905 30.7538 21.2829C30.0762 26.0726 26.8107 29.6125 22.1493 30.6293C21.909 30.6815 21.6665 30.7232 21.4228 30.7534C20.7881 30.831 20.7649 30.8519 20.7649 31.5105C20.7649 33.9697 20.7649 36.4277 20.7649 38.8869C20.7649 39.6429 20.5049 40.0116 19.9816 39.9988C19.4814 39.9861 19.2389 39.6243 19.2377 38.8904C19.2377 38.1669 19.2377 37.4446 19.2377 36.7211C19.2377 36.0161 19.1971 35.9663 18.4939 35.8979C16.5722 35.7112 14.7422 35.1906 13.0306 34.3071C8.68596 32.0647 5.89861 28.5666 4.66855 23.8349C4.53046 23.3027 4.71845 22.8981 5.13968 22.7786C5.61314 22.6441 5.97984 22.8946 6.13069 23.4789C7.13678 27.3596 9.34276 30.3533 12.7776 32.4288C14.6134 33.5384 16.6163 34.1564 18.7457 34.3801C19.0764 34.4149 19.2354 34.2584 19.2354 33.9349C19.2377 33.0386 19.2308 32.1412 19.2377 31.245C19.2401 30.8693 19.001 30.8009 18.7028 30.7638C16.7649 30.5249 15.0103 29.8188 13.4611 28.6362C11.1345 26.8599 9.764 24.5051 9.30331 21.6192C9.2917 21.5473 9.27778 21.4766 9.26617 21.4058C9.16986 20.8099 9.13504 20.7797 8.51073 20.7797C6.84552 20.7797 5.18146 20.7797 3.51624 20.7797C2.64824 20.7797 1.77908 20.7832 0.91108 20.7797C0.337828 20.7774 0.00826578 20.4968 0.000142774 20.018C-0.00798023 19.524 0.330865 19.2272 0.926165 19.2237C1.76516 19.2191 2.60531 19.2226 3.4443 19.2226C4.15448 19.2226 4.19626 19.1924 4.25428 18.4736C4.42834 16.3274 5.01204 14.2961 6.02625 12.4015C8.17305 8.39329 11.4397 5.73466 15.7901 4.40592C16.332 4.24012 16.7057 4.38621 16.8867 4.80362C17.0979 5.29175 16.8298 5.74162 16.1986 5.91785C14.8943 6.28192 13.6607 6.81063 12.5258 7.54573C8.48868 10.1603 6.25138 13.8763 5.77444 18.6545C5.72918 19.1101 5.83826 19.2307 6.29547 19.2342C7.0776 19.24 7.85857 19.2272 8.6407 19.24C9.00972 19.2458 9.18726 19.1113 9.23948 18.7263C9.89977 13.7755 13.4658 10.0919 18.386 9.26636C18.953 9.17128 19.2366 8.83117 19.2366 8.24604C19.2366 5.84481 19.2354 3.44474 19.2389 1.04351C19.2389 0.857996 19.2482 0.663208 19.305 0.48929C19.4083 0.162324 19.6625 0 19.999 0C20.3355 0 20.5896 0.160005 20.6929 0.485811C20.7486 0.660889 20.7591 0.854518 20.7591 1.04003C20.7637 2.47196 20.7614 3.90388 20.7614 5.33581Z" fill="#232338" stroke="#232338" />
    <path d="M29.1456 14.2045C28.6245 14.2045 28.1035 14.2184 27.5836 14.1999C27.239 14.1883 26.9849 14.3065 26.7423 14.5523C24.7522 16.5698 22.7516 18.5791 20.7533 20.5884C20.6315 20.7102 20.5085 20.8424 20.3623 20.927C20.0339 21.1148 19.7124 21.0592 19.4513 20.7913C19.1914 20.5247 19.1473 20.2047 19.3388 19.8777C19.4107 19.756 19.5198 19.6528 19.6208 19.5507C21.6666 17.4869 23.7194 15.4289 25.7525 13.3523C25.9196 13.1807 26.0333 12.8839 26.0414 12.6415C26.0728 11.6166 26.0646 10.5893 26.0495 9.5632C26.0437 9.17478 26.1644 8.8768 26.4429 8.60201C28.1604 6.90457 29.8662 5.19553 31.5732 3.4865C31.854 3.20591 32.1441 2.98445 32.5665 3.15953C32.9843 3.33229 33.0539 3.68128 33.0493 4.08477C33.0377 4.90799 33.0446 5.73236 33.0469 6.55673C33.0481 7.10515 33.1641 7.22226 33.7026 7.22458C34.5567 7.2269 35.4096 7.23153 36.2636 7.22342C36.6477 7.21994 36.9564 7.33936 37.098 7.71155C37.2361 8.07562 37.1026 8.35852 36.8207 8.63447C35.0765 10.3458 33.344 12.0699 31.6196 13.8022C31.333 14.0909 31.0301 14.2323 30.6216 14.2114C30.1308 14.1871 29.6388 14.2056 29.1467 14.2056L29.1456 14.2045ZM29.1641 12.6786C29.5262 12.6786 29.8882 12.6914 30.248 12.6729C30.3954 12.6647 30.581 12.6311 30.6785 12.5349C31.7194 11.5111 32.7499 10.478 33.7699 9.43334C33.872 9.32899 33.9614 9.09362 33.9115 8.99042C33.8476 8.86057 33.6388 8.74346 33.4821 8.72839C33.0957 8.69129 32.7023 8.72375 32.3124 8.71332C31.7786 8.6994 31.4838 8.4049 31.4688 7.87503C31.4595 7.54343 31.4943 7.20718 31.456 6.87906C31.4339 6.68659 31.3539 6.41064 31.2181 6.34571C31.0916 6.28542 30.805 6.40484 30.675 6.53238C29.6979 7.49705 28.7359 8.47679 27.7856 9.46812C27.6602 9.59798 27.5685 9.8148 27.5616 9.99451C27.5361 10.7157 27.5604 11.4392 27.5477 12.1615C27.5407 12.5418 27.731 12.6798 28.0791 12.6775C28.4412 12.6752 28.8021 12.6775 29.1641 12.6775V12.6786Z" fill="#F37124" stroke="#F37124" />
    <path d="M19.965 26.4784C16.5859 26.4204 13.7451 23.7363 13.5769 20.3971C13.404 16.9709 15.8827 14.0166 19.2386 13.6502C19.3964 13.6328 19.5543 13.6085 19.7132 13.5992C20.305 13.5679 20.6787 13.8473 20.6938 14.3273C20.7089 14.7934 20.3724 15.0415 19.8107 15.1389C19.1353 15.256 18.431 15.3685 17.8171 15.6526C15.7898 16.5929 14.7385 18.8759 15.2293 21.0881C15.7086 23.247 17.6628 24.8378 19.8803 24.8749C22.6375 24.9212 24.659 22.9861 24.8528 20.1026C24.8806 19.6886 25.0001 19.3582 25.4202 19.2272C25.9679 19.0567 26.4252 19.4556 26.4217 20.0805C26.4089 22.9676 24.3561 25.5729 21.5455 26.2384C21.0292 26.3613 20.4919 26.4007 19.965 26.4784Z" fill="#F37124" stroke="#F37124" />
  </g>
  <defs>
    <clipPath id="clip0_2107_5809">
      <rect width="40" height="40" fill="white" />
    </clipPath>
  </defs>
</svg>