<svg xmlns="http://www.w3.org/2000/svg" width="40" height="40" viewBox="0 0 40 40" fill="none">
  <g clip-path="url(#clip0_2107_5795)">
    <path d="M11.2984 20.2239C11.2102 15.4477 14.8718 11.5051 19.7125 11.3014C24.4585 11.1009 28.5146 14.8582 28.6901 19.7335C28.8633 24.5403 25.0927 28.5569 20.2465 28.6942C15.5573 28.8261 11.4804 25.2115 11.2984 20.225V20.2239ZM13.0497 20.0049C13.0693 23.9039 16.1719 26.9681 20.0787 26.9485C23.9038 26.9278 26.9802 23.7873 26.9519 19.9297C26.9246 16.107 23.797 13.0177 19.9839 13.0471C16.1152 13.0765 13.0301 16.1735 13.0486 20.006L13.0497 20.0049Z" fill="#F37124" stroke="#F37124" />
    <path d="M36.001 15.0622C35.9988 15.5361 35.7541 15.8698 35.4058 15.9683C35.0158 16.0785 34.5178 15.8891 34.3287 15.5446C34.2582 15.4173 34.2143 15.275 34.1631 15.1381C32.4769 10.5765 29.3599 7.4431 24.8067 5.74534C24.2116 5.52283 23.9305 5.16445 24.016 4.70765C24.1218 4.1428 24.6422 3.86358 25.2438 4.0647C27.1458 4.69909 28.878 5.6512 30.437 6.91035C32.978 8.96221 34.7882 11.5351 35.8749 14.6171C35.9358 14.7915 35.9753 14.9734 36.001 15.0622Z" fill="#232338" stroke="#232338" />
    <path d="M24.9528 35.9986C24.425 35.9589 24.0703 35.6779 24.0108 35.2254C23.9482 34.7524 24.185 34.4221 24.6915 34.2441C29.3376 32.6119 32.5213 29.4602 34.2735 24.8242C34.3106 24.7245 34.3383 24.6205 34.3829 24.524C34.5783 24.0993 35.019 23.902 35.4384 24.0467C35.8653 24.1937 36.1043 24.6516 35.9577 25.1159C35.5223 26.4972 34.9022 27.7937 34.1153 29.0055C32.0062 32.2527 29.1443 34.5412 25.5209 35.8527C25.3372 35.9192 25.1418 35.9514 24.9528 35.9996V35.9986Z" fill="#232338" stroke="#232338" />
    <path d="M4.00098 15.0892C4.01814 15.0207 4.04495 14.8621 4.09964 14.7143C5.9796 9.52384 9.51968 5.98536 14.7038 4.08703C15.284 3.87491 15.758 4.0581 15.9403 4.53697C16.129 5.03084 15.8695 5.47864 15.2722 5.69825C10.6125 7.41554 7.4306 10.6005 5.74474 15.2703C5.60533 15.6549 5.38762 15.9173 4.96938 15.987C4.4514 16.0737 4.01063 15.7084 4.00098 15.0892Z" fill="#232338" stroke="#232338" />
    <path d="M4.8323 23.9997C5.26165 23.9954 5.52528 24.2111 5.71144 24.7395C6.41626 26.7433 7.4751 28.5357 8.90948 30.1006C10.657 32.0084 12.7553 33.3888 15.1861 34.2656C15.4056 34.3444 15.6348 34.4619 15.7973 34.6237C16.062 34.889 16.0577 35.3161 15.8479 35.631C15.6241 35.9675 15.2561 36.085 14.8181 35.9362C13.0006 35.3161 11.3241 34.4285 9.80799 33.2454C7.11246 31.1402 5.19708 28.471 4.07045 25.2367C3.84125 24.5778 4.20066 24.0062 4.8323 23.9997Z" fill="#232338" stroke="#232338" />
    <path d="M19.0042 4.4837C19.0042 3.64894 18.9955 2.81418 19.0067 1.98052C19.0153 1.37641 19.4046 1.00407 19.9922 0.999672C20.5997 0.995278 20.9914 1.37422 20.9964 2.00468C21.005 3.26341 20.9988 4.52214 20.9988 5.78087C20.9988 6.1642 21.0026 6.54753 20.9988 6.92977C20.9914 7.59428 20.6195 7.99409 20.0108 7.99958C19.4021 8.00507 19.0116 7.60197 19.0067 6.94514C19.0005 6.12466 19.0054 5.30308 19.0054 4.4826L19.0042 4.4837Z" fill="#232338" stroke="#232338" />
    <path d="M4.48417 19.0024C5.33055 19.0024 6.17802 18.9987 7.02439 19.0036C7.40592 19.0061 7.71838 19.162 7.89598 19.5691C8.04838 19.9193 8.04838 20.3042 7.80608 20.5603C7.60545 20.7719 7.29738 20.9674 7.03426 20.9736C5.34151 21.0107 3.64766 21.0008 1.95491 20.9884C1.36069 20.9847 0.99342 20.5714 1.00109 19.98C1.00877 19.4108 1.37166 19.0173 1.94614 19.0074C2.79252 18.9925 3.63889 19.0036 4.48636 19.0036L4.48417 19.0024Z" fill="#232338" stroke="#232338" />
    <path d="M35.5283 20.9921C34.6675 20.9921 33.8067 21.0119 32.947 20.9872C32.2036 20.9649 31.7518 20.1602 32.1477 19.526C32.3034 19.275 32.6488 19.0377 32.913 19.0303C34.6467 18.987 36.3825 18.9969 38.1161 19.0154C38.6599 19.0216 39.0032 19.4432 39.001 20.0032C38.9999 20.5619 38.6556 20.9711 38.1095 20.986C37.2498 21.0095 36.389 20.9921 35.5283 20.9934V20.9921Z" fill="#232338" stroke="#232338" />
    <path d="M20.998 35.5286C20.998 36.3631 21.0067 37.1975 20.9943 38.0309C20.9869 38.5634 20.6701 38.917 20.18 38.9861C19.5475 39.0762 19.0228 38.7083 19.0154 38.1023C18.9956 36.3652 18.9968 34.6282 19.0154 32.8912C19.0216 32.3554 19.4609 31.9964 20.0067 31.9997C20.555 32.003 20.9733 32.3598 20.9881 32.9022C21.0116 33.7773 20.9943 34.6524 20.9943 35.5275H20.9968L20.998 35.5286Z" fill="#232338" stroke="#232338" />
    <path d="M19.2662 20.9858C19.3948 20.794 19.494 20.6523 19.5866 20.5074C20.3331 19.3403 21.0763 18.1711 21.8261 17.0062C22.165 16.4798 22.6641 16.3371 23.1044 16.6248C23.549 16.9146 23.6231 17.4126 23.2831 17.9455C22.2184 19.6182 21.1504 21.2898 20.077 22.9571C19.6204 23.6665 18.9077 23.661 18.4478 22.9484C17.8811 22.07 17.3188 21.1874 16.7597 20.3036C16.4295 19.7806 16.5102 19.263 16.9559 18.984C17.4038 18.7028 17.8855 18.8521 18.2298 19.3817C18.5677 19.9015 18.9022 20.4224 19.2662 20.9858Z" fill="#F37124" stroke="#F37124" />
  </g>
  <defs>
    <clipPath id="clip0_2107_5795">
      <rect width="40" height="40" fill="white" />
    </clipPath>
  </defs>
</svg>