<svg width="32" height="32" viewBox="0 0 32 32" fill="none" xmlns="http://www.w3.org/2000/svg">
<g opacity="1">
<path d="M19.24 25.0935C18.9867 25.0935 18.7333 25.0002 18.5333 24.8002C18.1467 24.4135 18.1467 23.7735 18.5333 23.3868L25.92 16.0002L18.5333 8.61349C18.1467 8.22682 18.1467 7.58682 18.5333 7.20016C18.92 6.81349 19.56 6.81349 19.9467 7.20016L28.04 15.2935C28.4267 15.6802 28.4267 16.3202 28.04 16.7068L19.9467 24.8002C19.7467 25.0002 19.4933 25.0935 19.24 25.0935Z" fill="white"/>
<path d="M27.1067 17.0002H4.66666C4.11999 17.0002 3.66666 16.5468 3.66666 16.0002C3.66666 15.4535 4.11999 15.0002 4.66666 15.0002H27.1067C27.6533 15.0002 28.1067 15.4535 28.1067 16.0002C28.1067 16.5468 27.6533 17.0002 27.1067 17.0002Z" fill="white"/>

</g>
</svg>
