<svg width="64" height="64" viewBox="0 0 64 64" fill="none" xmlns="http://www.w3.org/2000/svg">
<path d="M14.2136 51.7867C13.9203 51.7867 13.6003 51.7067 13.3336 51.5733L7.41365 48.6133C6.74698 48.2667 6.32031 47.5733 6.32031 46.8267V39.4133C6.32031 38.32 7.22698 37.4133 8.32031 37.4133C9.41365 37.4133 10.3203 38.32 10.3203 39.4133V45.5733L15.1203 48C16.107 48.48 16.507 49.68 16.0003 50.6667C15.6536 51.36 14.9603 51.7867 14.2136 51.7867Z" fill="white"/>
<path d="M31.9996 60.6668C31.8396 60.6668 31.6796 60.6401 31.5462 60.6134C31.3862 60.5868 31.2262 60.5068 31.0662 60.4268L25.1729 57.4934C24.1862 56.9868 23.7862 55.7868 24.2662 54.8001C24.7729 53.8134 25.9729 53.4134 26.9596 53.8934L29.9996 55.4134V51.2534C29.9996 50.1601 30.9062 49.2534 31.9996 49.2534C33.0929 49.2534 33.9996 50.1601 33.9996 51.2534V55.4134L37.0396 53.8934C38.0262 53.4134 39.2262 53.8134 39.7329 54.8001C40.2396 55.7868 39.8396 56.9868 38.8262 57.4934L32.9329 60.4268C32.7729 60.5068 32.6129 60.5601 32.4529 60.6134C32.2929 60.6401 32.1596 60.6668 31.9996 60.6668Z" fill="white"/>
<path d="M49.7871 51.7866C49.0671 51.7866 48.3471 51.3866 48.0005 50.6933C47.4938 49.7066 47.8938 48.5066 48.9071 47.9999L53.7338 45.5999V39.4399C53.7338 38.3466 54.6405 37.4399 55.7338 37.4399C56.8271 37.4399 57.7338 38.3466 57.7338 39.4399V46.8533C57.7338 47.5999 57.3071 48.2933 56.6405 48.6399L50.6671 51.5733C50.3738 51.7066 50.0805 51.7866 49.7871 51.7866Z" fill="white"/>
<path d="M31.9996 38.4535C30.9062 38.4535 29.9996 37.5468 29.9996 36.4535V30.2935L25.1729 27.8935C24.1862 27.3868 23.7862 26.1868 24.2662 25.2001C24.7729 24.2135 25.9729 23.8135 26.9596 24.2935L31.9996 26.8001L37.0396 24.2935C38.0262 23.8135 39.2262 24.1868 39.7329 25.2001C40.2396 26.1868 39.8396 27.3868 38.8262 27.8935L33.9996 30.2935V36.4535C33.9996 37.5468 33.0929 38.4535 31.9996 38.4535Z" fill="white"/>
<path d="M8.29297 26.5866C7.19964 26.5866 6.29297 25.68 6.29297 24.5866V17.2266V17.2C6.29297 17.04 6.31964 16.88 6.3463 16.7466C6.39964 16.5066 6.47964 16.32 6.5863 16.1333C6.6663 16 6.77297 15.8933 6.87964 15.7866C6.9863 15.68 7.11964 15.5733 7.25297 15.4933C7.3063 15.4666 7.3863 15.4133 7.43964 15.3866L13.333 12.4266C14.3196 11.9466 15.5196 12.3466 15.9996 13.3333C16.5063 14.32 16.1063 15.52 15.1196 16L12.773 17.1733L15.1196 18.3466C16.1063 18.8533 16.5063 20.0533 15.9996 21.04C15.5196 22.0266 14.3196 22.4266 13.333 21.9466L10.293 20.4266V24.5866C10.293 25.7066 9.41297 26.5866 8.29297 26.5866Z" fill="white"/>
<path d="M37.9198 10.2933C37.6265 10.2933 37.3065 10.2133 37.0398 10.08L31.9998 7.57333L26.9598 10.08C25.9731 10.5867 24.7731 10.1867 24.2931 9.19999C23.7865 8.21333 24.1865 7.01333 25.1731 6.50666L31.0931 3.54666C31.6531 3.25333 32.3198 3.25333 32.8798 3.54666L38.7998 6.50666C39.7865 7.01333 40.1865 8.21333 39.7065 9.19999C39.3598 9.89333 38.6665 10.2933 37.9198 10.2933Z" fill="white"/>
<path d="M55.7068 26.5866C54.6135 26.5866 53.7068 25.68 53.7068 24.5866V20.4266L50.6668 21.9466C49.6802 22.4266 48.4802 22.0266 48.0002 21.04C47.4935 20.0533 47.8935 18.8533 48.9068 18.3466L51.2535 17.1733L48.8802 16C47.8935 15.52 47.4935 14.32 48.0002 13.3333C48.5068 12.3466 49.6802 11.9466 50.6668 12.4266L56.5602 15.36C56.6135 15.3866 56.6935 15.4133 56.7468 15.4666C56.9068 15.5466 57.0402 15.68 57.1735 15.8133C57.2535 15.92 57.3335 16.0266 57.4135 16.1333C57.5202 16.32 57.6002 16.5066 57.6535 16.72C57.6802 16.88 57.7068 17.04 57.7068 17.1733V17.2V24.56C57.7068 25.7066 56.8002 26.5866 55.7068 26.5866Z" fill="white"/>
</svg>
