<svg width="64" height="64" viewBox="0 0 64 64" fill="none" xmlns="http://www.w3.org/2000/svg">
<path d="M39.9997 60.6666H23.9997C9.51968 60.6666 3.33301 54.4799 3.33301 39.9999V23.9999C3.33301 9.51992 9.51968 3.33325 23.9997 3.33325H39.9997C54.4797 3.33325 60.6663 9.51992 60.6663 23.9999V39.9999C60.6663 54.4799 54.4797 60.6666 39.9997 60.6666ZM23.9997 7.33325C11.7063 7.33325 7.33301 11.7066 7.33301 23.9999V39.9999C7.33301 52.2933 11.7063 56.6666 23.9997 56.6666H39.9997C52.293 56.6666 56.6663 52.2933 56.6663 39.9999V23.9999C56.6663 11.7066 52.293 7.33325 39.9997 7.33325H23.9997Z" fill="white"/>
<path d="M45.3327 33.5733H38.186C35.2794 33.5733 33.0127 31.3067 33.0127 28.4V24.4265C33.0127 21.5198 35.2794 19.2532 38.186 19.2532H42.1594C45.0127 19.2532 47.3327 21.5732 47.3327 24.4265V31.5466C47.3327 32.6666 46.426 33.5733 45.3327 33.5733ZM38.186 23.2532C37.3327 23.2532 37.0127 23.8932 37.0127 24.4265V28.4C37.0127 28.9333 37.306 29.5733 38.186 29.5733H43.3327V24.4532C43.3327 23.8132 42.7994 23.2799 42.1594 23.2799H38.186V23.2532Z" fill="white"/>
<path d="M39.7599 44.7468C39.0666 44.7468 38.3999 44.4 38.0266 43.76C37.4666 42.8 37.7866 41.5734 38.7199 41.0134C42.3466 38.8534 43.3332 38.2935 43.3332 31.5735C43.3332 30.4802 44.2399 29.5735 45.3332 29.5735C46.4266 29.5735 47.3332 30.4802 47.3332 31.5735C47.3332 39.7868 45.5466 41.6267 40.7732 44.4534C40.4532 44.64 40.1066 44.7468 39.7599 44.7468Z" fill="white"/>
<path d="M28.9606 33.5733H21.814C18.9073 33.5733 16.6406 31.3067 16.6406 28.4V24.4265C16.6406 21.5198 18.9073 19.2532 21.814 19.2532H25.7873C28.6406 19.2532 30.9606 21.5732 30.9606 24.4265V31.5466C30.9606 32.6666 30.0806 33.5733 28.9606 33.5733ZM21.8406 23.2532C20.9873 23.2532 20.6673 23.8932 20.6673 24.4265V28.4C20.6673 28.9333 20.9606 29.5733 21.8406 29.5733H26.9873V24.4532C26.9873 23.8132 26.454 23.2799 25.814 23.2799H21.8406V23.2532Z" fill="white"/>
<path d="M23.3859 44.7468C22.6925 44.7468 22.0259 44.4 21.6525 43.76C21.0925 42.8 21.4125 41.5734 22.3459 41.0134C25.9725 38.8534 26.9592 38.2935 26.9592 31.5735C26.9592 30.4802 27.8659 29.5735 28.9592 29.5735C30.0525 29.5735 30.9592 30.4802 30.9592 31.5735C30.9592 39.7868 29.1725 41.6267 24.3992 44.4534C24.0792 44.64 23.7325 44.7468 23.3859 44.7468Z" fill="white"/>
</svg>
