<svg width="64" height="64" viewBox="0 0 64 64" fill="none" xmlns="http://www.w3.org/2000/svg">
<path d="M53.333 15.3333H37.333C36.2397 15.3333 35.333 14.4266 35.333 13.3333C35.333 12.2399 36.2397 11.3333 37.333 11.3333H53.333C54.4263 11.3333 55.333 12.2399 55.333 13.3333C55.333 14.4266 54.4263 15.3333 53.333 15.3333Z" fill="white"/>
<path d="M45.333 23.3333H37.333C36.2397 23.3333 35.333 22.4266 35.333 21.3333C35.333 20.2399 36.2397 19.3333 37.333 19.3333H45.333C46.4263 19.3333 47.333 20.2399 47.333 21.3333C47.333 22.4266 46.4263 23.3333 45.333 23.3333Z" fill="white"/>
<path d="M30.6663 57.9999C15.5997 57.9999 3.33301 45.7333 3.33301 30.6666C3.33301 15.5999 15.5997 3.33325 30.6663 3.33325C31.7597 3.33325 32.6663 4.23992 32.6663 5.33325C32.6663 6.42659 31.7597 7.33325 30.6663 7.33325C17.7863 7.33325 7.33301 17.8133 7.33301 30.6666C7.33301 43.5199 17.7863 53.9999 30.6663 53.9999C43.5463 53.9999 53.9997 43.5199 53.9997 30.6666C53.9997 29.5733 54.9063 28.6666 55.9997 28.6666C57.093 28.6666 57.9997 29.5733 57.9997 30.6666C57.9997 45.7333 45.733 57.9999 30.6663 57.9999Z" fill="white"/>
<path d="M58.6665 60.6668C58.1598 60.6668 57.6532 60.4801 57.2532 60.0801L51.9198 54.7468C51.1465 53.9734 51.1465 52.6934 51.9198 51.9201C52.6932 51.1468 53.9732 51.1468 54.7465 51.9201L60.0798 57.2534C60.8532 58.0268 60.8532 59.3068 60.0798 60.0801C59.6798 60.4801 59.1732 60.6668 58.6665 60.6668Z" fill="white"/>
</svg>
