<svg width="64" height="64" viewBox="0 0 64 64" fill="none" xmlns="http://www.w3.org/2000/svg">
<path d="M31.9997 42C26.4797 42 21.9997 37.52 21.9997 32C21.9997 26.4799 26.4797 22 31.9997 22C37.5197 22 41.9997 26.4799 41.9997 32C41.9997 37.52 37.5197 42 31.9997 42ZM31.9997 26C28.693 26 25.9997 28.6933 25.9997 32C25.9997 35.3066 28.693 38 31.9997 38C35.3063 38 37.9997 35.3066 37.9997 32C37.9997 28.6933 35.3063 26 31.9997 26Z" fill="white"/>
<path d="M40.5597 59.1733C39.9997 59.1733 39.4397 59.0933 38.8797 58.96C37.2263 58.5066 35.8397 57.4666 34.9597 56L34.6397 55.4666C33.0663 52.7466 30.9063 52.7466 29.333 55.4666L29.0397 55.9733C28.1597 57.4666 26.773 58.5333 25.1197 58.96C23.4397 59.4133 21.7063 59.1733 20.2397 58.2933L15.653 55.6533C14.0263 54.72 12.853 53.2 12.3463 51.36C11.8663 49.52 12.1063 47.6266 13.0397 46C13.813 44.6399 14.0263 43.4133 13.573 42.6399C13.1197 41.8666 11.973 41.4133 10.3997 41.4133C6.50634 41.4133 3.33301 38.24 3.33301 34.3466V29.6533C3.33301 25.7599 6.50634 22.5866 10.3997 22.5866C11.973 22.5866 13.1197 22.1333 13.573 21.36C14.0263 20.5866 13.8397 19.36 13.0397 18C12.1063 16.3733 11.8663 14.4533 12.3463 12.6399C12.8263 10.7999 13.9997 9.27995 15.653 8.34662L20.2663 5.70662C23.2797 3.91995 27.253 4.95995 29.0663 8.02662L29.3863 8.55995C30.9597 11.28 33.1197 11.28 34.693 8.55995L34.9863 8.05328C36.7997 4.95995 40.773 3.91995 43.813 5.73328L48.3997 8.37328C50.0263 9.30662 51.1997 10.8266 51.7063 12.6666C52.1863 14.5066 51.9463 16.4 51.013 18.0266C50.2397 19.3866 50.0263 20.6133 50.4797 21.3866C50.933 22.16 52.0797 22.6133 53.653 22.6133C57.5463 22.6133 60.7197 25.7866 60.7197 29.68V34.3733C60.7197 38.2666 57.5463 41.4399 53.653 41.4399C52.0797 41.4399 50.933 41.8933 50.4797 42.6666C50.0263 43.4399 50.213 44.6666 51.013 46.0266C51.9463 47.6533 52.213 49.5733 51.7063 51.3866C51.2263 53.2266 50.053 54.7466 48.3997 55.6799L43.7863 58.32C42.773 58.88 41.6797 59.1733 40.5597 59.1733ZM31.9997 49.3066C34.373 49.3066 36.5863 50.8 38.1063 53.44L38.3997 53.9466C38.7197 54.5066 39.253 54.9066 39.893 55.0666C40.533 55.2266 41.173 55.1466 41.7063 54.8266L46.3197 52.16C47.013 51.7599 47.5463 51.0933 47.7597 50.2933C47.973 49.4933 47.8663 48.6666 47.4663 47.9733C45.9463 45.36 45.7597 42.6666 46.933 40.6133C48.1063 38.5599 50.533 37.3866 53.573 37.3866C55.2797 37.3866 56.6397 36.0266 56.6397 34.32V29.6266C56.6397 27.9466 55.2797 26.5599 53.573 26.5599C50.533 26.5599 48.1063 25.3866 46.933 23.3333C45.7597 21.28 45.9463 18.5866 47.4663 15.9733C47.8663 15.28 47.973 14.4533 47.7597 13.6533C47.5463 12.8533 47.0397 12.2133 46.3463 11.7866L41.733 9.14662C40.5863 8.45328 39.0663 8.85328 38.373 10.0266L38.0797 10.5333C36.5597 13.1733 34.3463 14.6666 31.973 14.6666C29.5997 14.6666 27.3863 13.1733 25.8663 10.5333L25.573 9.99995C24.9063 8.87995 23.413 8.47995 22.2663 9.14662L17.653 11.8133C16.9597 12.2133 16.4263 12.88 16.213 13.68C15.9997 14.4799 16.1063 15.3066 16.5063 16C18.0263 18.6133 18.213 21.3066 17.0397 23.36C15.8663 25.4133 13.4397 26.5866 10.3997 26.5866C8.69301 26.5866 7.33301 27.9466 7.33301 29.6533V34.3466C7.33301 36.0266 8.69301 37.4133 10.3997 37.4133C13.4397 37.4133 15.8663 38.5866 17.0397 40.6399C18.213 42.6933 18.0263 45.3866 16.5063 48C16.1063 48.6933 15.9997 49.52 16.213 50.32C16.4263 51.1199 16.933 51.7599 17.6263 52.1866L22.2397 54.8266C22.7997 55.1733 23.4663 55.2533 24.0797 55.0933C24.7197 54.9333 25.253 54.5066 25.5997 53.9466L25.893 53.44C27.413 50.8266 29.6263 49.3066 31.9997 49.3066Z" fill="white"/>
</svg>
